<svg width="145" height="50" viewBox="0 0 145 50" fill="none" xmlns="http://www.w3.org/2000/svg">
<path d="M27.395 49.25C26.3104 49.25 25.2178 48.9948 24.1172 48.4844C23.0166 47.9899 21.8283 47.2801 20.5522 46.355C19.3879 45.5415 18.2314 44.6483 17.083 43.6753C14.3874 41.4422 11.923 39.8631 9.68994 38.938C8.39795 38.3957 7.01025 38.1245 5.52686 38.1245H4.97656C4.88086 38.1245 4.68945 38.1405 4.40234 38.1724L11.6997 4.22168C9.49854 5.13086 7.80778 6.48665 6.62744 8.28906C5.4471 10.0755 4.85693 12.2767 4.85693 14.8926C4.85693 15.8975 4.96859 16.7189 5.19189 17.3569C5.2557 17.5643 5.33545 17.7477 5.43115 17.9072C5.49495 18.0189 5.52686 18.1305 5.52686 18.2422C3.75635 18.2422 2.46436 17.8833 1.65088 17.1655C0.741699 16.3999 0.287109 15.1717 0.287109 13.481C0.287109 12.4123 0.518392 11.3595 0.980957 10.3228C1.44352 9.27002 2.09749 8.25716 2.94287 7.28418C3.75635 6.3431 4.71338 5.4738 5.81396 4.67627C6.9305 3.86279 8.12679 3.16097 9.40283 2.5708C12.1144 1.34261 14.8101 0.728516 17.4897 0.728516C18.0799 0.728516 18.7339 0.768392 19.4517 0.848145L11.915 36.019C12.6966 36.1945 13.4862 36.4577 14.2837 36.8086C15.0972 37.1595 16.0223 37.6141 17.0591 38.1724L19.7388 39.6079C21.8123 40.7404 23.6865 41.522 25.3613 41.9526C26.3184 42.2078 27.3232 42.3354 28.376 42.3354C29.8594 42.3354 31.2311 42.0723 32.4912 41.5459C32.2041 43.9385 31.6219 45.8127 30.7446 47.1685C30.314 47.8384 29.8115 48.3488 29.2373 48.6997C28.679 49.0666 28.0649 49.25 27.395 49.25ZM35.9844 37.335C32.7305 37.335 30.2821 36.5454 28.6392 34.9663C26.9963 33.3872 26.1748 31.0425 26.1748 27.9321C26.1748 26.3849 26.4061 24.6702 26.8687 22.7881L31.8691 2.90576C30.4655 3.27262 29.2054 3.80697 28.0889 4.50879C26.9723 5.21061 26.0233 6.03206 25.2417 6.97314C24.492 7.86637 23.9178 8.84733 23.519 9.91602C23.1362 10.9688 22.9448 12.0534 22.9448 13.1699C22.9448 14.8128 23.3675 16.376 24.2129 17.8594C22.3467 17.8594 20.8952 17.4048 19.8584 16.4956C18.8376 15.5864 18.3271 14.2944 18.3271 12.6196C18.3271 11.5509 18.5505 10.4982 18.9971 9.46143C19.4596 8.40869 20.1136 7.40381 20.959 6.44678C21.7565 5.52165 22.7295 4.66829 23.8779 3.88672C25.0264 3.10514 26.2944 2.42725 27.6821 1.85303C30.5851 0.656738 33.6077 0.0585938 36.75 0.0585938C37.8506 0.0585938 38.7677 0.138346 39.5015 0.297852L33.52 22.9316C32.9618 24.9733 32.6826 26.7358 32.6826 28.2192C32.6826 31.3296 33.9587 32.8848 36.5107 32.8848C40.1156 32.8848 42.6517 29.5192 44.1191 22.7881L49 0.154297H55.9146L51.1294 22.7881C50.1086 27.5732 48.3221 31.194 45.77 33.6504C43.2179 36.1068 39.9561 37.335 35.9844 37.335ZM69.3608 3.33643C66.8726 4.16585 64.9505 5.52165 63.5947 7.40381C62.2549 9.27002 61.585 11.5908 61.585 14.3662C61.585 15.4189 61.6966 16.2484 61.9199 16.8545C61.9678 17.0299 62.0475 17.2054 62.1592 17.3809C62.223 17.4925 62.2549 17.6121 62.2549 17.7397C60.596 17.7397 59.328 17.4048 58.4507 16.7349C57.4937 16.0011 57.0151 14.8527 57.0151 13.2896C57.0151 12.2687 57.2225 11.2319 57.6372 10.1792C58.0519 9.12646 58.6421 8.10563 59.4077 7.1167C60.1574 6.15967 61.0267 5.26644 62.0156 4.43701C63.0205 3.59163 64.1051 2.85791 65.2695 2.23584C66.4339 1.59782 67.6382 1.11133 68.8823 0.776367C70.1424 0.425456 71.3866 0.25 72.6147 0.25C73.827 0.25 75.0632 0.481283 76.3232 0.943848L75.1987 26.7598L85.9893 0.943848H93.0474L87.9033 37H80.8452L83.9795 14.9883L74.7681 37H68.0449L69.0259 14.8926L60.8433 37H56.9194L69.3608 3.33643ZM103.91 3.71924C101.708 4.62842 100.018 5.98421 98.8374 7.78662C97.6571 9.58903 97.0669 11.7982 97.0669 14.4141C97.0669 15.4349 97.1785 16.2484 97.4019 16.8545C97.4657 17.0618 97.5454 17.2453 97.6411 17.4048C97.7049 17.5164 97.7368 17.6281 97.7368 17.7397C95.9663 17.7397 94.6743 17.3888 93.8608 16.687C92.9517 15.9214 92.4971 14.6852 92.4971 12.9785C92.4971 11.9098 92.7284 10.8571 93.1909 9.82031C93.6535 8.76758 94.3075 7.75472 95.1528 6.78174C95.9504 5.85661 96.8994 4.99528 98 4.19775C99.1165 3.38428 100.321 2.68245 101.613 2.09229C104.324 0.864095 107.02 0.25 109.7 0.25C110.433 0.25 111.087 0.281901 111.662 0.345703L103.862 37H96.8276L103.91 3.71924ZM121.256 42.5747C120.363 42.5747 119.581 42.5348 118.911 42.4551C118.241 42.3753 117.611 42.1839 117.021 41.8809C115.474 41.1312 114.7 39.6318 114.7 37.3828C114.7 36.2982 114.868 34.9982 115.203 33.4829C115.554 31.9676 116.048 30.3327 116.686 28.5781C118.09 24.7181 119.828 21.0096 121.902 17.4526C120.275 17.5483 118.983 17.7956 118.026 18.1943C117.085 18.5771 116.463 19.1753 116.16 19.9888C116.303 19.9888 116.447 20.1562 116.59 20.4912C116.734 20.8262 116.806 21.1691 116.806 21.52C116.806 22.0942 116.542 22.5568 116.016 22.9077C115.49 23.2586 114.836 23.4341 114.054 23.4341C113.177 23.4341 112.459 23.1948 111.901 22.7163C111.311 22.2218 111.016 21.512 111.016 20.5869C111.016 19.7734 111.263 18.9998 111.757 18.2661C112.252 17.5164 112.954 16.8704 113.863 16.3281C114.788 15.7699 115.857 15.3392 117.069 15.0361C118.297 14.7171 119.613 14.5576 121.017 14.5576C121.702 14.5576 122.556 14.6055 123.577 14.7012C126.32 10.3786 129.064 6.9891 131.807 4.53271C134.997 1.67757 137.932 0.25 140.612 0.25C142.207 0.25 143.499 0.481283 144.488 0.943848L136.808 37H129.75L133.506 19.2231C132.326 18.6808 131.217 18.2741 130.18 18.0029C129.159 17.7318 128.083 17.5483 126.95 17.4526C125.1 21.4562 123.585 25.5475 122.404 29.7266C121.192 33.9215 120.586 37.2951 120.586 39.8472C120.586 41.1073 120.809 42.0164 121.256 42.5747ZM136.808 3.71924C135.388 4.48486 133.897 5.92839 132.333 8.0498C130.802 10.1553 129.351 12.5877 127.979 15.3472C130.212 15.7778 132.206 16.3441 133.96 17.0459L136.808 3.71924Z" fill="#22292F"/>
</svg>
